<svg xmlns="http://www.w3.org/2000/svg" width="300" height="640" viewBox="0 0 300 640"><defs><radialGradient id="lan"><stop offset="0" stop-color="#7fe0d4" stop-opacity="0.7"/><stop offset="1" stop-color="#7fe0d4" stop-opacity="0"/></radialGradient></defs><circle cx="227" cy="148" r="92" fill="url(#lan)"/><g fill="#050507" stroke="#efe9dc" stroke-width="7" stroke-linejoin="round"><rect x="222" y="150" width="10" height="490"/><rect x="85" y="596" width="40" height="44" fill="#050507"/><rect x="155" y="596" width="40" height="44" fill="#050507"/><path d="M80 190 L200 190 L232 600 L48 600 Z" fill="#050507"/><path d="M185 220 L228 300 L214 316 L170 250 Z" fill="#050507"/><rect x="105" y="146" width="70" height="56" fill="#050507"/><circle cx="140" cy="120" r="38" fill="#050507"/><rect x="78" y="80" width="124" height="14" fill="#050507"/><rect x="108" y="38" width="64" height="46" fill="#050507"/><rect x="216" y="114" width="22" height="12"/></g><g fill="#050507" stroke="none" stroke-width="0" stroke-linejoin="round"><rect x="222" y="150" width="10" height="490"/><rect x="85" y="596" width="40" height="44" fill="#050507"/><rect x="155" y="596" width="40" height="44" fill="#050507"/><path d="M80 190 L200 190 L232 600 L48 600 Z" fill="#050507"/><path d="M185 220 L228 300 L214 316 L170 250 Z" fill="#050507"/><rect x="105" y="146" width="70" height="56" fill="#050507"/><circle cx="140" cy="120" r="38" fill="#050507"/><rect x="78" y="80" width="124" height="14" fill="#050507"/><rect x="108" y="38" width="64" height="46" fill="#050507"/><rect x="216" y="114" width="22" height="12"/></g><path d="M206 126 h42 l-6 46 h-30 z" fill="#7fe0d4" stroke="#efe9dc" stroke-width="3"/></svg>